<mxfile host="app.diagrams.net" agent="Mozilla/5.0 (Windows NT 10.0; Win64; x64; rv:138.0) Gecko/20100101 Firefox/138.0" version="26.2.14">
  <diagram name="Page-1" id="uaMm4SDR-q0XfPR3CSGH">
    <mxGraphModel dx="591" dy="358" grid="1" gridSize="10" guides="1" tooltips="1" connect="1" arrows="1" fold="1" page="1" pageScale="1" pageWidth="850" pageHeight="1100" math="0" shadow="0">
      <root>
        <mxCell id="0" />
        <mxCell id="1" parent="0" />
        <mxCell id="ebCbkRVBjpw3awejZStd-2" value="S" style="ellipse;whiteSpace=wrap;html=1;aspect=fixed;" vertex="1" parent="1">
          <mxGeometry x="370" y="90" width="40" height="40" as="geometry" />
        </mxCell>
        <mxCell id="ebCbkRVBjpw3awejZStd-3" value="S" style="ellipse;whiteSpace=wrap;html=1;aspect=fixed;" vertex="1" parent="1">
          <mxGeometry x="240" y="160" width="40" height="40" as="geometry" />
        </mxCell>
        <mxCell id="ebCbkRVBjpw3awejZStd-11" value="S" style="ellipse;whiteSpace=wrap;html=1;aspect=fixed;" vertex="1" parent="1">
          <mxGeometry x="290" y="160" width="40" height="40" as="geometry" />
        </mxCell>
        <mxCell id="ebCbkRVBjpw3awejZStd-12" value="S" style="ellipse;whiteSpace=wrap;html=1;aspect=fixed;" vertex="1" parent="1">
          <mxGeometry x="340" y="160" width="40" height="40" as="geometry" />
        </mxCell>
        <mxCell id="ebCbkRVBjpw3awejZStd-13" value="S" style="ellipse;whiteSpace=wrap;html=1;aspect=fixed;" vertex="1" parent="1">
          <mxGeometry x="390" y="160" width="40" height="40" as="geometry" />
        </mxCell>
        <mxCell id="ebCbkRVBjpw3awejZStd-14" value="S" style="ellipse;whiteSpace=wrap;html=1;aspect=fixed;" vertex="1" parent="1">
          <mxGeometry x="440" y="160" width="40" height="40" as="geometry" />
        </mxCell>
        <mxCell id="ebCbkRVBjpw3awejZStd-15" value="S" style="ellipse;whiteSpace=wrap;html=1;aspect=fixed;" vertex="1" parent="1">
          <mxGeometry x="490" y="160" width="40" height="40" as="geometry" />
        </mxCell>
        <mxCell id="ebCbkRVBjpw3awejZStd-16" value="" style="endArrow=none;html=1;rounded=0;entryX=0.036;entryY=0.689;entryDx=0;entryDy=0;entryPerimeter=0;" edge="1" parent="1" target="ebCbkRVBjpw3awejZStd-2">
          <mxGeometry width="50" height="50" relative="1" as="geometry">
            <mxPoint x="260" y="160" as="sourcePoint" />
            <mxPoint x="310" y="110" as="targetPoint" />
          </mxGeometry>
        </mxCell>
        <mxCell id="ebCbkRVBjpw3awejZStd-17" value="" style="endArrow=none;html=1;rounded=0;entryX=0.059;entryY=0.736;entryDx=0;entryDy=0;entryPerimeter=0;exitX=0.5;exitY=0;exitDx=0;exitDy=0;" edge="1" parent="1" source="ebCbkRVBjpw3awejZStd-11" target="ebCbkRVBjpw3awejZStd-2">
          <mxGeometry width="50" height="50" relative="1" as="geometry">
            <mxPoint x="314" y="160" as="sourcePoint" />
            <mxPoint x="425" y="118" as="targetPoint" />
          </mxGeometry>
        </mxCell>
        <mxCell id="ebCbkRVBjpw3awejZStd-19" value="" style="endArrow=none;html=1;rounded=0;entryX=0;entryY=1;entryDx=0;entryDy=0;exitX=0.5;exitY=0;exitDx=0;exitDy=0;" edge="1" parent="1" source="ebCbkRVBjpw3awejZStd-12" target="ebCbkRVBjpw3awejZStd-2">
          <mxGeometry width="50" height="50" relative="1" as="geometry">
            <mxPoint x="360" y="160" as="sourcePoint" />
            <mxPoint x="471" y="118" as="targetPoint" />
          </mxGeometry>
        </mxCell>
        <mxCell id="ebCbkRVBjpw3awejZStd-20" value="" style="endArrow=none;html=1;rounded=0;entryX=0.967;entryY=0.682;entryDx=0;entryDy=0;entryPerimeter=0;" edge="1" parent="1" target="ebCbkRVBjpw3awejZStd-2">
          <mxGeometry width="50" height="50" relative="1" as="geometry">
            <mxPoint x="511" y="160" as="sourcePoint" />
            <mxPoint x="400" y="118" as="targetPoint" />
          </mxGeometry>
        </mxCell>
        <mxCell id="ebCbkRVBjpw3awejZStd-32" value="" style="endArrow=none;html=1;rounded=0;entryX=0.94;entryY=0.753;entryDx=0;entryDy=0;entryPerimeter=0;exitX=0.5;exitY=0;exitDx=0;exitDy=0;" edge="1" parent="1" source="ebCbkRVBjpw3awejZStd-14" target="ebCbkRVBjpw3awejZStd-2">
          <mxGeometry width="50" height="50" relative="1" as="geometry">
            <mxPoint x="462" y="160" as="sourcePoint" />
            <mxPoint x="400" y="119" as="targetPoint" />
          </mxGeometry>
        </mxCell>
        <mxCell id="ebCbkRVBjpw3awejZStd-33" value="" style="endArrow=none;html=1;rounded=0;entryX=1;entryY=1;entryDx=0;entryDy=0;exitX=0.5;exitY=0;exitDx=0;exitDy=0;" edge="1" parent="1" source="ebCbkRVBjpw3awejZStd-13" target="ebCbkRVBjpw3awejZStd-2">
          <mxGeometry width="50" height="50" relative="1" as="geometry">
            <mxPoint x="418" y="160" as="sourcePoint" />
            <mxPoint x="402" y="124" as="targetPoint" />
          </mxGeometry>
        </mxCell>
      </root>
    </mxGraphModel>
  </diagram>
</mxfile>
